<?xml version="1.0" encoding="iso-8859-1"?>
<!-- Generator: Adobe Illustrator 18.0.0, SVG Export Plug-In . SVG Version: 6.00 Build 0)  -->
<!DOCTYPE svg PUBLIC "-//W3C//DTD SVG 1.1//EN" "http://www.w3.org/Graphics/SVG/1.1/DTD/svg11.dtd">
<svg version="1.1" id="Capa_1" xmlns="http://www.w3.org/2000/svg" xmlns:xlink="http://www.w3.org/1999/xlink" x="0px" y="0px" 
	 viewBox="0 0 444.676 444.676" style="fill:white" xml:space="preserve">
<path d="M443.305,369.556l-75.462-65.811V74.992c34.605-3.688,68.305-15.166,66.799-30.356c-0.597-6.007-6.243-10.604-16.783-13.664
	c-8.872-2.575-20.751-3.937-34.354-3.937c-5.092,0-10.341,0.202-15.662,0.585V17.315c0-2.209-1.791-4-4-4s-4,1.791-4,4v11.018
	c-34.606,3.688-68.305,15.167-66.798,30.357c0.597,6.007,6.242,10.604,16.781,13.663c8.871,2.575,20.749,3.938,34.352,3.938
	c0.002,0,0.002,0,0.003,0c5.092,0,10.34-0.202,15.662-0.586v228.04l-42.87,37.383c0.432-3.701,0.661-7.463,0.661-11.278
	c0-0.636,0-26.898,0-26.898c0-22.103-7.454-42.491-19.97-58.802v-29.983h55.909c2.209,0,4-1.791,4-4v-41.08c0-2.209-1.791-4-4-4
	h-34.173c0.552-1.329,0.71-2.741,0.288-4.23c0,0,0-0.001,0-0.001l0.003-0.001l-13.256-46.762c-1.653-5.832-10.19-6.06-16.461-5.716
	c-7.653,0.414-17.413,2.214-27.48,5.067c-6.762,1.917-40.328,12.063-37.056,23.608l3.31,11.678h-16.358l2.541-13.441
	c2.644-13.998-42.415-22.935-47.562-23.907s-50.35-9.1-52.996,4.899l-6.003,31.757c-9.059,0.301-17.428,0.882-24.288,1.681V92.536
	l11.435-11.322c1.454,0.258,2.915,0.507,4.385,0.744c14.118,2.283,28.252,3.489,40.874,3.489c13.361,0,24.872-1.334,33.289-3.858
	c9.996-2.998,15.563-7.6,16.545-13.677c1.365-8.449-6.784-17.141-23.567-25.137c-15.132-7.209-35.763-13.168-58.092-16.777
	c-0.175-0.028-0.35-0.052-0.524-0.08v-8.604c0-2.209-1.791-4-4-4s-4,1.791-4,4v7.447c-11.228-1.472-22.272-2.253-32.35-2.253
	c-13.361,0-24.872,1.334-33.289,3.858c-9.996,2.998-15.563,7.6-16.545,13.677c-1.365,8.449,6.784,17.141,23.567,25.137
	c11.935,5.686,27.297,10.588,44.208,14.179l-61.242,60.636c-1.569,1.555-1.582,4.087-0.028,5.657
	c0.782,0.79,1.813,1.186,2.843,1.186c1.017,0,2.034-0.386,2.814-1.157l45.678-45.226v50.412c-8.131,1.442-13.047,3.447-13.047,7.844
	v92.362c0,3.899,3.559,6.159,13.047,7.849v45.474L1.371,369.556c-1.665,1.452-1.838,3.979-0.386,5.644
	c0.791,0.907,1.9,1.371,3.017,1.371c0.933,0,1.869-0.324,2.627-0.985l50.475-44.02l18.979,10.217v10.264c0,2.209,1.791,4,4,4
	s4-1.791,4-4v-9.457l20.477-11.023l21.667,18.897c0.001,0.007,0.003,0.014,0.005,0.02l-23.344,75.697
	c-0.651,2.111,0.532,4.35,2.644,5.001c0.393,0.121,0.789,0.179,1.18,0.179c1.709,0,3.291-1.104,3.821-2.822l19.825-64.285
	c13.905,36.442,49.199,62.407,90.466,62.407c41.685,0,77.301-26.483,90.908-63.507l20.165,65.385
	c0.53,1.719,2.112,2.822,3.821,2.822c0.39,0,0.787-0.058,1.18-0.179c2.111-0.651,3.295-2.89,2.644-5.001l-22.874-74.171
	l23.447-20.446l19.73,10.621v10.621c0,2.209,1.791,4,4,4s4-1.791,4-4v-10.621l19.729-10.62l50.475,44.02
	c0.758,0.661,1.694,0.985,2.627,0.985c1.116,0,2.226-0.464,3.017-1.371C445.143,373.535,444.97,371.008,443.305,369.556z
	 M45.252,57.96c-14.94-7.118-19.633-13.411-19.11-16.638c0.868-5.373,15.552-10.813,41.936-10.813
	c12.202,0,25.895,1.171,39.597,3.386c21.602,3.493,41.463,9.212,55.928,16.103c14.94,7.118,19.633,13.411,19.11,16.638
	c-0.868,5.373-15.552,10.813-41.936,10.813c-11.799,0-24.994-1.105-38.243-3.18l5.893-5.835V53.978c0-2.209-1.791-4-4-4
	s-4,1.791-4,4v11.117l-7.568,7.493C74.511,69.062,57.838,63.956,45.252,57.96z M76.083,332.697l-12.537-6.75l12.537-10.934V332.697z
	 M76.083,250.799c-2.302-0.449-4.006-0.905-5.047-1.34v-84.006c1.496,0.408,3.197,0.762,5.047,1.09V250.799z M337.604,173.086h11.97
	v33.08h-11.97V173.086z M329.604,173.086v33.08H263.43v-17.507c5.894-0.866,12.478-2.295,19.198-4.2
	c10.065-2.854,19.316-6.442,26.048-10.104c0.724-0.394,1.477-0.818,2.233-1.269H329.604z M289.664,214.166v20.812
	c-8.624-8.729-18.88-15.842-30.283-20.812H289.664z M280.446,176.761c-10.886,3.086-21.265,4.855-28.476,4.855
	c-2.08,0-3.497-0.153-4.438-0.328c3.329-2.97,13.496-8.589,30.403-13.381c10.886-3.086,21.265-4.855,28.476-4.855
	c2.08,0,3.497,0.153,4.438,0.328C307.522,166.35,297.356,171.968,280.446,176.761z M255.43,189.507v16.658h-11.97v-17.732
	c3.113,1.174,6.822,1.184,8.511,1.184c0,0,0,0,0.001,0C253.063,189.617,254.222,189.578,255.43,189.507z M309.765,155.169
	c-1.373-0.113-2.578-0.117-3.353-0.117c-7.918,0-19.092,1.88-30.657,5.158c-4.701,1.332-22.342,6.643-31.572,13.632l-4.851-17.113
	h5.073c2.209,0,4-1.791,4-4s-1.791-4-4-4h-6.793c2.584-2.777,12.92-8.813,30.938-13.921c19.132-5.424,31.465-5.416,34.254-4.191
	L309.765,155.169z M298.929,116.944l1.453,5.127c-2.207-0.183-4.489-0.137-6.532-0.027c-1.868,0.101-3.865,0.288-5.958,0.549
	l-1.663-5.865C293.002,115.981,297.396,116.276,298.929,116.944z M264.676,121.14c5.013-1.421,9.546-2.462,13.577-3.213l1.687,5.948
	c-4.343,0.836-8.918,1.917-13.57,3.236c-5.145,1.458-10.074,3.11-14.566,4.865l-1.681-5.93
	C254.239,124.404,259.077,122.727,264.676,121.14z M242.732,129.313l1.6,5.644c0.019,0.067,0.05,0.128,0.073,0.193
	c-1.442,0.683-2.806,1.374-4.079,2.067c-1.798,0.978-3.764,2.136-5.547,3.45l-1.453-5.126
	C234.211,134.267,237.36,131.971,242.732,129.313z M224.82,156.729h6.196l4.443,15.674v34.859c-3.49-0.532-7.039-0.883-10.64-1.03
	V156.729z M308.51,288.85c-15.465-32.943-48.953-55.812-87.688-55.812c-38.74,0-72.232,22.876-87.694,55.825
	c6.772-42.297,43.516-74.72,87.697-74.72C264.997,214.143,301.734,246.559,308.51,288.85z M216.82,156.729v49.503
	c-11.964,0.489-23.37,3.169-33.84,7.632v-11.312c12.953-0.166,19.766-2.824,20.769-8.127c0-0.001,0-0.001,0-0.002l0.004,0.001
	l7.126-37.695H216.82z M202.78,130.954c2.331,1.333,3.735,2.473,4.211,3.274l-0.842,4.453c-1.447-0.976-2.964-1.82-4.353-2.52
	L202.78,130.954z M169.14,119.886c11.206,2.294,19.923,5.014,26.165,7.536l-1.032,5.458c-7.362-2.843-16.435-5.41-26.189-7.41
	L169.14,119.886z M134.115,116.145c6.591-0.174,15.72,0.369,27.159,2.276l-1.055,5.584c-9.904-1.65-19.315-2.493-27.131-2.426
	L134.115,116.145z M122.154,118.191c0.592-0.46,1.828-0.905,3.671-1.265l-0.967,5.115c-1.148,0.142-2.351,0.336-3.546,0.603
	L122.154,118.191z M119.612,131.644c2.612-2.056,17.938-3.833,43.73,1.043c25.802,4.877,39.423,12.126,41.105,14.994l-0.198,1.049
	h-7.951c-2.209,0-4,1.791-4,4s1.791,4,4,4h6.439l-5.227,27.648c-3.084-2.08-6.499-3.562-8.276-4.332
	c-8.644-3.745-20.378-7.127-33.04-9.521c-11.097-2.097-22.083-3.252-30.935-3.252c-5.086,0-9.27,0.364-12.588,1.095L119.612,131.644
	z M125.259,175.273c8.368,0,18.826,1.105,29.448,3.113c24.261,4.586,37.759,11.271,40.68,14.435
	c-1.589,0.724-5.612,1.748-13.7,1.748c-8.369,0-18.828-1.105-29.449-3.113c-24.259-4.586-37.758-11.271-40.679-14.434
	C113.148,176.297,117.171,175.273,125.259,175.273z M84.083,157.78c5.861-0.715,13.477-1.335,22.765-1.685l-0.98,5.185
	c-8.844-0.355-16.132-0.957-21.785-1.646V157.78z M84.083,167.695c2.478,0.287,5.148,0.546,7.976,0.774v5.56c0,2.209,1.791,4,4,4
	s4-1.791,4-4v-5.02c1.414,0.078,2.846,0.151,4.308,0.214l-1.17,6.191l0,0c0,0.001,0,0.001,0,0.002
	c-1.413,7.477,10.576,12.672,14.516,14.379c8.644,3.745,20.377,7.127,33.039,9.521c8.439,1.595,16.808,2.641,24.229,3.052v15.35
	c-15.529,8.384-28.524,20.879-37.504,36.028c-4.735,0.159-9.587,0.244-14.469,0.244c-16.335,0-29.683-0.858-38.925-1.976V167.695z
	 M84.083,333.503v-19.796l14.034,12.241L84.083,333.503z M124.006,302.951c0,0,0.004,26.256,0.004,26.898
	c0,2.826,0.129,5.621,0.367,8.386l-40.294-35.144v-43.021c10.584,1.239,24.338,1.92,38.925,1.92c3.41,0,6.804-0.043,10.161-0.12
	C127.296,274.349,124.006,288.272,124.006,302.951z M220.822,418.661c-48.972,0-88.813-39.841-88.813-88.812
	s39.841-88.812,88.813-88.812c48.971,0,88.812,39.841,88.812,88.812S269.793,418.661,220.822,418.661z M359.843,333.1l-13.288-7.154
	l13.288-11.587V333.1z M363.843,47.663c-2.209,0-4,1.791-4,4v16.027c-5.329,0.398-10.577,0.601-15.662,0.601
	c-0.001,0-0.002,0-0.003,0c-31.529-0.001-42.849-7.136-43.172-10.391c-0.614-6.189,23.52-18.034,61.294-21.783
	c7.23-0.718,14.364-1.081,21.205-1.081c31.532,0,42.853,7.136,43.176,10.391c0.6,6.054-22.482,17.512-58.838,21.519V51.663
	C367.843,49.454,366.052,47.663,363.843,47.663z M367.843,333.1v-18.74l13.287,11.587L367.843,333.1z"/>
<g>
</g>
<g>
</g>
<g>
</g>
<g>
</g>
<g>
</g>
<g>
</g>
<g>
</g>
<g>
</g>
<g>
</g>
<g>
</g>
<g>
</g>
<g>
</g>
<g>
</g>
<g>
</g>
<g>
</g>
</svg>
