<svg xmlns="http://www.w3.org/2000/svg" width="20" height="20" viewBox="0 0 20 20"><path d="M18,8A10,10,0,1,0,28,18,10.011,10.011,0,0,0,18,8Zm6.612,4.612a8.5,8.5,0,0,1,1.929,5.321,19.961,19.961,0,0,0-5.948-.275c-.232-.566-.451-1.064-.751-1.678a11.378,11.378,0,0,0,4.77-3.368Zm-.95-.988a9.644,9.644,0,0,1-4.477,3.085,45.593,45.593,0,0,0-3.187-5A8.519,8.519,0,0,1,23.662,11.624Zm-9.294-1.341a54.5,54.5,0,0,1,3.167,4.94,31.86,31.86,0,0,1-7.9,1.041A8.573,8.573,0,0,1,14.369,10.283Zm-4.91,7.73c0-.087,0-.174,0-.261a31.508,31.508,0,0,0,8.778-1.216c.245.479.478.964.692,1.45a13.23,13.23,0,0,0-7.279,5.738A8.507,8.507,0,0,1,9.458,18.013Zm3.3,6.738A12.014,12.014,0,0,1,19.514,19.4a35.5,35.5,0,0,1,1.822,6.477,8.524,8.524,0,0,1-8.579-1.124Zm10.015.342A36.866,36.866,0,0,0,21.113,19a12.537,12.537,0,0,1,5.32.365A8.556,8.556,0,0,1,22.772,25.094Z" transform="translate(-8 -8)"/></svg>