<svg xmlns="http://www.w3.org/2000/svg" width="24" height="24" viewBox="0 0 24 24"><defs><style>.a{fill:#7f8fa6;}.b,.d{fill:none;}.b{stroke:#f2f2f2;stroke-width:0.25px;}.c{stroke:none;}</style></defs><g transform="translate(-405 -112)"><path class="a" d="M386.536,332.119a6.418,6.418,0,0,0-6.418,6.418c0,2.231,2.54,7.035,4.424,10.293a2.3,2.3,0,0,0,3.988,0c1.884-3.258,4.424-8.062,4.424-10.293A6.418,6.418,0,0,0,386.536,332.119Zm0,11.267a4.749,4.749,0,1,1,4.75-4.749A4.75,4.75,0,0,1,386.536,343.386Z" transform="translate(30.882 -216.119)"/><g class="b" transform="translate(405 112)"><rect class="c" width="24" height="24"/><rect class="d" x="0.125" y="0.125" width="23.75" height="23.75"/></g></g></svg>