<svg xmlns="http://www.w3.org/2000/svg" width="20" height="20" viewBox="0 0 20 20"><defs><style>.a{fill:#7f8fa6;}</style></defs><path class="a" d="M19.372,36.372l-3.745-3.745A2.143,2.143,0,0,0,14.112,32H2.143A2.143,2.143,0,0,0,0,34.143V49.857A2.143,2.143,0,0,0,2.143,52H17.857A2.143,2.143,0,0,0,20,49.857V37.888a2.143,2.143,0,0,0-.628-1.515Zm-7.23-2.23v3.571H6.429V34.143Zm5.446,15.714H2.411a.268.268,0,0,1-.268-.268V34.411a.268.268,0,0,1,.268-.268H4.286v4.643a1.071,1.071,0,0,0,1.071,1.071h7.857a1.071,1.071,0,0,0,1.071-1.071v-4.47l3.493,3.493a.268.268,0,0,1,.078.189V49.589A.268.268,0,0,1,17.589,49.857ZM10,40.929a3.929,3.929,0,1,0,3.929,3.929A3.933,3.933,0,0,0,10,40.929Zm0,5.714a1.786,1.786,0,1,1,1.786-1.786A1.788,1.788,0,0,1,10,46.643Z" transform="translate(0 -32)"/></svg>