<svg xmlns="http://www.w3.org/2000/svg" width="24" height="24" viewBox="0 0 24 24"><defs><style>.a{fill:#7f8fa6;}.b{fill:none;}</style></defs><g transform="translate(-360 -91)"><path class="a" d="M242.243,365.412a5.838,5.838,0,0,1,11.621-.858,5.686,5.686,0,0,1-1,4.142c-.1.137-.1.216.024.338.374.356.737.725,1.1,1.1a.256.256,0,0,0,.332.073,1.057,1.057,0,0,1,1.31.278c.9.937,1.821,1.848,2.748,2.754a.965.965,0,0,1,.268,1.086,2.452,2.452,0,0,1-1.659,1.616.927.927,0,0,1-1-.26c-.926-.941-1.853-1.882-2.8-2.8a1.029,1.029,0,0,1-.265-1.252.3.3,0,0,0-.088-.391q-.542-.521-1.063-1.063a.214.214,0,0,0-.337-.037,5.84,5.84,0,0,1-9.122-3.868A3.813,3.813,0,0,1,242.243,365.412Zm1.415-.054a4.42,4.42,0,1,0,4.41-4.424A4.391,4.391,0,0,0,243.658,365.358Z" transform="translate(121.763 -264.517)"/><rect class="b" width="24" height="24" transform="translate(360 91)"/></g></svg>