<svg xmlns="http://www.w3.org/2000/svg" width="24.197" height="28.769" viewBox="0 0 24.197 28.769"><defs><style>.a{fill:#60ae32;}</style></defs><g transform="translate(-322.422 -279.205)"><path class="a" d="M336.738,279.2a7.542,7.542,0,1,0,7.542,7.542A7.542,7.542,0,0,0,336.738,279.2Zm0,13.632a6.086,6.086,0,0,1-5.391-3.262h10.782A6.086,6.086,0,0,1,336.738,292.837Z" transform="translate(-2.217)"/><path class="a" d="M337.828,304.686a7.475,7.475,0,0,1-6.615,0,12.1,12.1,0,0,0-8.791,11.629h24.2A12.1,12.1,0,0,0,337.828,304.686Z" transform="translate(0 -8.341)"/></g></svg>